<svg viewBox="0 0 358 77" fill="none" xmlns="http://www.w3.org/2000/svg"><g clip-path="url(#clip0_277_7)"><line x1="85.8335" x2="85.8335" y2="77" stroke="currentColor"></line><path d="M115.087 41H107.998L97.4897 12.875H105.4L113.193 35.5117L120.244 12.875H125.048L115.087 41ZM143.001 41H135.247V12.875H143.001V41ZM163.941 41H156.187V12.875H170.016C171.318 12.875 172.574 13.0312 173.785 13.3438C174.996 13.6432 176.064 14.125 176.988 14.7891C177.926 15.4401 178.668 16.2865 179.215 17.3281C179.775 18.3698 180.055 19.6328 180.055 21.1172C180.055 22.276 179.807 23.3698 179.312 24.3984C178.831 25.4141 178.18 26.3255 177.359 27.1328C176.552 27.9271 175.621 28.5911 174.566 29.125C173.512 29.6458 172.418 29.9909 171.285 30.1602C171.793 31.0195 172.32 31.8333 172.867 32.6016C173.427 33.3698 173.987 34.0924 174.547 34.7695C175.12 35.4336 175.686 36.0521 176.246 36.625C176.806 37.1849 177.34 37.6992 177.848 38.168C179.045 39.2617 180.23 40.2057 181.402 41H171.734C170.953 40.2578 170.211 39.3659 169.508 38.3242C168.909 37.4388 168.303 36.3451 167.691 35.043C167.092 33.7279 166.63 32.2109 166.305 30.4922H163.941V41ZM172.183 21.1172C172.183 19.2292 171.721 17.8424 170.797 16.957C169.885 16.0716 168.512 15.6289 166.676 15.6289H163.941V27.8359H166.676C167.652 27.8359 168.486 27.6536 169.176 27.2891C169.879 26.9115 170.452 26.4167 170.894 25.8047C171.337 25.1797 171.663 24.4635 171.871 23.6562C172.079 22.849 172.183 22.0026 172.183 21.1172ZM218.632 27.543V27.9141C218.606 29.0078 218.489 30.1406 218.28 31.3125C218.085 32.4844 217.805 33.6562 217.441 34.8281C217.076 36 216.64 37.1589 216.132 38.3047C215.624 39.4505 215.051 40.5443 214.413 41.5859C213.788 42.6406 213.111 43.6237 212.382 44.5352C211.653 45.4596 210.885 46.2734 210.077 46.9766L207.167 45.2969C207.623 44.5286 208.033 43.6888 208.398 42.7773C208.775 41.8789 209.114 40.9349 209.413 39.9453C209.713 38.9557 209.967 37.9401 210.175 36.8984C210.396 35.8568 210.579 34.8216 210.722 33.793C210.865 32.7643 210.969 31.7552 211.034 30.7656C211.112 29.763 211.151 28.8125 211.151 27.9141C211.151 27.2109 211.145 26.4167 211.132 25.5312C211.132 24.6328 211.08 23.7214 210.976 22.7969C210.885 21.8724 210.728 20.974 210.507 20.1016C210.286 19.2161 209.954 18.4284 209.511 17.7383C209.081 17.0482 208.521 16.4948 207.831 16.0781C207.154 15.6615 206.308 15.4531 205.292 15.4531C204.394 15.4531 203.619 15.6094 202.968 15.9219C202.33 16.2214 201.783 16.6315 201.327 17.1523C200.885 17.6602 200.526 18.2526 200.253 18.9297C199.993 19.6068 199.784 20.3229 199.628 21.0781C199.485 21.8203 199.387 22.5755 199.335 23.3438C199.296 24.099 199.276 24.8151 199.276 25.4922V30.9414H207.694V34.1641H199.276V41H191.523V26.7031C191.523 24.6589 191.848 22.7578 192.499 21C193.15 19.2422 194.068 17.7188 195.253 16.4297C196.451 15.1276 197.883 14.112 199.55 13.3828C201.23 12.6406 203.098 12.2695 205.155 12.2695C206.549 12.2695 207.851 12.4714 209.062 12.875C210.286 13.2656 211.399 13.8125 212.401 14.5156C213.404 15.2057 214.296 16.0326 215.077 16.9961C215.872 17.9466 216.529 18.9883 217.05 20.1211C217.584 21.2539 217.987 22.4518 218.261 23.7148C218.534 24.9779 218.658 26.2539 218.632 27.543ZM253.537 32.4062C253.537 33.6172 253.381 34.6849 253.069 35.6094C252.769 36.5339 252.339 37.3346 251.78 38.0117C251.233 38.6888 250.582 39.2552 249.826 39.7109C249.071 40.1667 248.244 40.5312 247.346 40.8047C246.461 41.0781 245.517 41.2734 244.514 41.3906C243.524 41.5078 242.515 41.5664 241.487 41.5664C240.132 41.5664 238.882 41.4622 237.737 41.2539C236.591 41.0586 235.51 40.7461 234.494 40.3164C233.492 39.8737 232.522 39.3073 231.584 38.6172C230.66 37.9271 229.735 37.0872 228.811 36.0977L232.795 32.0547C233.16 32.9531 233.661 33.7865 234.299 34.5547C234.937 35.3099 235.634 35.9609 236.389 36.5078C237.157 37.0547 237.951 37.4844 238.772 37.7969C239.592 38.1094 240.367 38.2656 241.096 38.2656C241.955 38.2656 242.763 38.207 243.518 38.0898C244.273 37.9596 244.931 37.7513 245.491 37.4648C246.05 37.1784 246.487 36.8008 246.799 36.332C247.125 35.8503 247.287 35.2513 247.287 34.5352C247.287 33.9883 247.164 33.5195 246.916 33.1289C246.669 32.7383 246.343 32.4062 245.94 32.1328C245.549 31.8464 245.1 31.6055 244.592 31.4102C244.084 31.2148 243.563 31.0521 243.03 30.9219C242.509 30.7786 241.994 30.6549 241.487 30.5508C240.979 30.4336 240.53 30.3164 240.139 30.1992C239.371 29.9779 238.57 29.7435 237.737 29.4961C236.903 29.2357 236.083 28.9427 235.276 28.6172C234.468 28.2917 233.7 27.9206 232.971 27.5039C232.255 27.0742 231.623 26.5729 231.076 26C230.53 25.4141 230.093 24.7435 229.768 23.9883C229.442 23.2201 229.28 22.3411 229.28 21.3516C229.28 20.1667 229.423 19.1185 229.709 18.207C230.009 17.2826 230.425 16.4818 230.959 15.8047C231.493 15.1276 232.125 14.5612 232.854 14.1055C233.583 13.6367 234.384 13.2656 235.256 12.9922C236.129 12.7057 237.053 12.5039 238.03 12.3867C239.019 12.2565 240.028 12.1914 241.057 12.1914C242.463 12.1914 243.739 12.3216 244.885 12.582C246.044 12.8424 247.112 13.2135 248.088 13.6953C249.065 14.1771 249.957 14.7565 250.764 15.4336C251.584 16.0977 252.353 16.8398 253.069 17.6602L249.084 21.7031C248.772 20.7656 248.336 19.9193 247.776 19.1641C247.229 18.4089 246.617 17.7643 245.94 17.2305C245.263 16.6836 244.553 16.2669 243.811 15.9805C243.069 15.681 242.353 15.5312 241.662 15.5312C240.764 15.5312 239.937 15.5964 239.182 15.7266C238.427 15.8438 237.776 16.0456 237.229 16.332C236.695 16.6055 236.278 16.9831 235.979 17.4648C235.679 17.9336 235.53 18.5195 235.53 19.2227C235.53 19.7826 235.64 20.2578 235.862 20.6484C236.083 21.0391 236.376 21.3711 236.741 21.6445C237.118 21.918 237.541 22.1458 238.01 22.3281C238.479 22.4974 238.961 22.6471 239.455 22.7773C239.963 22.9076 240.458 23.0247 240.94 23.1289C241.435 23.2201 241.884 23.3242 242.287 23.4414C243.069 23.6628 243.889 23.8971 244.748 24.1445C245.608 24.3919 246.454 24.6849 247.287 25.0234C248.121 25.349 248.915 25.7266 249.67 26.1562C250.425 26.5859 251.089 27.1003 251.662 27.6992C252.235 28.2852 252.691 28.9688 253.03 29.75C253.368 30.5182 253.537 31.4036 253.537 32.4062ZM294.537 26.8984C294.537 29.1641 294.146 31.2083 293.365 33.0312C292.583 34.8411 291.503 36.3776 290.123 37.6406C288.742 38.9036 287.108 39.8737 285.22 40.5508C283.332 41.2279 281.288 41.5664 279.087 41.5664C276.887 41.5664 274.843 41.2279 272.955 40.5508C271.067 39.8737 269.432 38.9036 268.052 37.6406C266.672 36.3776 265.591 34.8411 264.81 33.0312C264.029 31.2083 263.638 29.1641 263.638 26.8984C263.638 24.5938 264.022 22.5365 264.791 20.7266C265.572 18.9036 266.646 17.3672 268.013 16.1172C269.393 14.8542 271.028 13.8906 272.916 13.2266C274.804 12.5495 276.861 12.2109 279.087 12.2109C281.314 12.2109 283.371 12.5495 285.259 13.2266C287.147 13.8906 288.775 14.8542 290.142 16.1172C291.522 17.3672 292.597 18.9036 293.365 20.7266C294.146 22.5365 294.537 24.5938 294.537 26.8984ZM286.646 26.8984C286.646 26.0391 286.607 25.1602 286.529 24.2617C286.451 23.3633 286.307 22.4909 286.099 21.6445C285.891 20.7982 285.604 20.0039 285.24 19.2617C284.888 18.5195 284.432 17.875 283.873 17.3281C283.313 16.7682 282.636 16.332 281.841 16.0195C281.06 15.694 280.142 15.5312 279.087 15.5312C278.02 15.5312 277.089 15.694 276.294 16.0195C275.5 16.332 274.823 16.7617 274.263 17.3086C273.703 17.8555 273.248 18.5 272.896 19.2422C272.544 19.9844 272.264 20.7786 272.056 21.625C271.861 22.4583 271.724 23.3307 271.646 24.2422C271.568 25.1406 271.529 26.026 271.529 26.8984C271.529 27.7578 271.568 28.6367 271.646 29.5352C271.724 30.4336 271.867 31.306 272.076 32.1523C272.284 32.9857 272.564 33.7734 272.916 34.5156C273.28 35.2578 273.742 35.9089 274.302 36.4688C274.862 37.0156 275.533 37.4518 276.314 37.7773C277.108 38.1029 278.033 38.2656 279.087 38.2656C280.116 38.2656 281.014 38.1029 281.783 37.7773C282.551 37.4388 283.215 36.9896 283.775 36.4297C284.335 35.8568 284.797 35.1992 285.162 34.457C285.539 33.7018 285.832 32.9076 286.041 32.0742C286.262 31.2279 286.418 30.362 286.509 29.4766C286.6 28.5911 286.646 27.7318 286.646 26.8984ZM313.915 41H306.161V12.875H326.356V16.4688H313.915V25.1602H323.524V28.7344H313.915V41ZM350.226 41H342.473V16.4688H334.816V12.875H357.883V16.4688H350.226V41Z" fill="currentColor"></path><path d="M120.743 64.1172C120.302 64.1172 119.901 64.043 119.542 63.8945C119.186 63.7422 118.88 63.5293 118.622 63.2559C118.368 62.9824 118.173 62.6582 118.036 62.2832C117.899 61.9082 117.831 61.498 117.831 61.0527V60.8066C117.831 60.291 117.907 59.832 118.059 59.4297C118.212 59.0234 118.419 58.6797 118.681 58.3984C118.942 58.1172 119.239 57.9043 119.571 57.7598C119.903 57.6152 120.247 57.543 120.602 57.543C121.056 57.543 121.446 57.6211 121.774 57.7773C122.106 57.9336 122.378 58.1523 122.589 58.4336C122.8 58.7109 122.956 59.0391 123.057 59.418C123.159 59.793 123.21 60.2031 123.21 60.6484V61.1348H118.475V60.25H122.126V60.168C122.11 59.8867 122.052 59.6133 121.95 59.3477C121.852 59.082 121.696 58.8633 121.481 58.6914C121.266 58.5195 120.973 58.4336 120.602 58.4336C120.356 58.4336 120.13 58.4863 119.923 58.5918C119.716 58.6934 119.538 58.8457 119.39 59.0488C119.241 59.252 119.126 59.5 119.044 59.793C118.962 60.0859 118.921 60.4238 118.921 60.8066V61.0527C118.921 61.3535 118.962 61.6367 119.044 61.9023C119.13 62.1641 119.253 62.3945 119.413 62.5938C119.577 62.793 119.774 62.9492 120.005 63.0625C120.239 63.1758 120.505 63.2324 120.802 63.2324C121.184 63.2324 121.509 63.1543 121.774 62.998C122.04 62.8418 122.272 62.6328 122.472 62.3711L123.128 62.8926C122.991 63.0996 122.817 63.2969 122.606 63.4844C122.395 63.6719 122.136 63.8242 121.827 63.9414C121.522 64.0586 121.161 64.1172 120.743 64.1172ZM134.047 62.3184C134.047 62.1621 134.012 62.0176 133.941 61.8848C133.875 61.748 133.736 61.625 133.525 61.5156C133.318 61.4023 133.006 61.3047 132.588 61.2227C132.236 61.1484 131.918 61.0605 131.633 60.959C131.352 60.8574 131.111 60.7344 130.912 60.5898C130.717 60.4453 130.566 60.2754 130.461 60.0801C130.355 59.8848 130.303 59.6562 130.303 59.3945C130.303 59.1445 130.357 58.9082 130.467 58.6855C130.58 58.4629 130.738 58.2656 130.941 58.0938C131.148 57.9219 131.396 57.7871 131.686 57.6895C131.975 57.5918 132.297 57.543 132.652 57.543C133.16 57.543 133.594 57.6328 133.953 57.8125C134.312 57.9922 134.588 58.2324 134.779 58.5332C134.971 58.8301 135.066 59.1602 135.066 59.5234H133.982C133.982 59.3477 133.93 59.1777 133.824 59.0137C133.723 58.8457 133.572 58.707 133.373 58.5977C133.178 58.4883 132.937 58.4336 132.652 58.4336C132.352 58.4336 132.107 58.4805 131.92 58.5742C131.736 58.6641 131.602 58.7793 131.516 58.9199C131.434 59.0605 131.393 59.209 131.393 59.3652C131.393 59.4824 131.412 59.5879 131.451 59.6816C131.494 59.7715 131.568 59.8555 131.674 59.9336C131.779 60.0078 131.928 60.0781 132.119 60.1445C132.311 60.2109 132.555 60.2773 132.852 60.3438C133.371 60.4609 133.799 60.6016 134.135 60.7656C134.471 60.9297 134.721 61.1309 134.885 61.3691C135.049 61.6074 135.131 61.8965 135.131 62.2363C135.131 62.5137 135.072 62.7676 134.955 62.998C134.842 63.2285 134.676 63.4277 134.457 63.5957C134.242 63.7598 133.984 63.8887 133.684 63.9824C133.387 64.0723 133.053 64.1172 132.682 64.1172C132.123 64.1172 131.65 64.0176 131.264 63.8184C130.877 63.6191 130.584 63.3613 130.385 63.0449C130.186 62.7285 130.086 62.3945 130.086 62.043H131.176C131.191 62.3398 131.277 62.5762 131.434 62.752C131.59 62.9238 131.781 63.0469 132.008 63.1211C132.234 63.1914 132.459 63.2266 132.682 63.2266C132.978 63.2266 133.227 63.1875 133.426 63.1094C133.629 63.0312 133.783 62.9238 133.889 62.7871C133.994 62.6504 134.047 62.4941 134.047 62.3184ZM146.126 62.3184C146.126 62.1621 146.091 62.0176 146.021 61.8848C145.954 61.748 145.816 61.625 145.605 61.5156C145.398 61.4023 145.085 61.3047 144.667 61.2227C144.316 61.1484 143.997 61.0605 143.712 60.959C143.431 60.8574 143.191 60.7344 142.991 60.5898C142.796 60.4453 142.646 60.2754 142.54 60.0801C142.435 59.8848 142.382 59.6562 142.382 59.3945C142.382 59.1445 142.437 58.9082 142.546 58.6855C142.659 58.4629 142.817 58.2656 143.021 58.0938C143.228 57.9219 143.476 57.7871 143.765 57.6895C144.054 57.5918 144.376 57.543 144.732 57.543C145.239 57.543 145.673 57.6328 146.032 57.8125C146.392 57.9922 146.667 58.2324 146.858 58.5332C147.05 58.8301 147.146 59.1602 147.146 59.5234H146.062C146.062 59.3477 146.009 59.1777 145.903 59.0137C145.802 58.8457 145.651 58.707 145.452 58.5977C145.257 58.4883 145.017 58.4336 144.732 58.4336C144.431 58.4336 144.187 58.4805 143.999 58.5742C143.816 58.6641 143.681 58.7793 143.595 58.9199C143.513 59.0605 143.472 59.209 143.472 59.3652C143.472 59.4824 143.491 59.5879 143.53 59.6816C143.573 59.7715 143.648 59.8555 143.753 59.9336C143.858 60.0078 144.007 60.0781 144.198 60.1445C144.39 60.2109 144.634 60.2773 144.931 60.3438C145.45 60.4609 145.878 60.6016 146.214 60.7656C146.55 60.9297 146.8 61.1309 146.964 61.3691C147.128 61.6074 147.21 61.8965 147.21 62.2363C147.21 62.5137 147.151 62.7676 147.034 62.998C146.921 63.2285 146.755 63.4277 146.536 63.5957C146.321 63.7598 146.064 63.8887 145.763 63.9824C145.466 64.0723 145.132 64.1172 144.761 64.1172C144.202 64.1172 143.73 64.0176 143.343 63.8184C142.956 63.6191 142.663 63.3613 142.464 63.0449C142.265 62.7285 142.165 62.3945 142.165 62.043H143.255C143.271 62.3398 143.357 62.5762 143.513 62.752C143.669 62.9238 143.86 63.0469 144.087 63.1211C144.314 63.1914 144.538 63.2266 144.761 63.2266C145.058 63.2266 145.306 63.1875 145.505 63.1094C145.708 63.0312 145.862 62.9238 145.968 62.7871C146.073 62.6504 146.126 62.4941 146.126 62.3184ZM157.145 64.1172C156.703 64.1172 156.303 64.043 155.944 63.8945C155.588 63.7422 155.281 63.5293 155.024 63.2559C154.77 62.9824 154.574 62.6582 154.438 62.2832C154.301 61.9082 154.233 61.498 154.233 61.0527V60.8066C154.233 60.291 154.309 59.832 154.461 59.4297C154.613 59.0234 154.821 58.6797 155.082 58.3984C155.344 58.1172 155.641 57.9043 155.973 57.7598C156.305 57.6152 156.649 57.543 157.004 57.543C157.457 57.543 157.848 57.6211 158.176 57.7773C158.508 57.9336 158.78 58.1523 158.99 58.4336C159.201 58.7109 159.358 59.0391 159.459 59.418C159.561 59.793 159.612 60.2031 159.612 60.6484V61.1348H154.877V60.25H158.528V60.168C158.512 59.8867 158.453 59.6133 158.352 59.3477C158.254 59.082 158.098 58.8633 157.883 58.6914C157.668 58.5195 157.375 58.4336 157.004 58.4336C156.758 58.4336 156.531 58.4863 156.324 58.5918C156.117 58.6934 155.94 58.8457 155.791 59.0488C155.643 59.252 155.528 59.5 155.446 59.793C155.363 60.0859 155.322 60.4238 155.322 60.8066V61.0527C155.322 61.3535 155.363 61.6367 155.446 61.9023C155.531 62.1641 155.655 62.3945 155.815 62.5938C155.979 62.793 156.176 62.9492 156.406 63.0625C156.641 63.1758 156.906 63.2324 157.203 63.2324C157.586 63.2324 157.91 63.1543 158.176 62.998C158.442 62.8418 158.674 62.6328 158.873 62.3711L159.53 62.8926C159.393 63.0996 159.219 63.2969 159.008 63.4844C158.797 63.6719 158.537 63.8242 158.229 63.9414C157.924 64.0586 157.563 64.1172 157.145 64.1172ZM167.841 59.0137V64H166.757V57.6602H167.783L167.841 59.0137ZM167.583 60.5898L167.132 60.5723C167.136 60.1387 167.201 59.7383 167.326 59.3711C167.451 59 167.626 58.6777 167.853 58.4043C168.079 58.1309 168.349 57.9199 168.661 57.7715C168.978 57.6191 169.327 57.543 169.71 57.543C170.023 57.543 170.304 57.5859 170.554 57.6719C170.804 57.7539 171.017 57.8867 171.193 58.0703C171.372 58.2539 171.509 58.4922 171.603 58.7852C171.697 59.0742 171.743 59.4277 171.743 59.8457V64H170.654V59.834C170.654 59.502 170.605 59.2363 170.507 59.0371C170.41 58.834 170.267 58.6875 170.079 58.5977C169.892 58.5039 169.661 58.457 169.388 58.457C169.118 58.457 168.872 58.5137 168.65 58.627C168.431 58.7402 168.242 58.8965 168.081 59.0957C167.925 59.2949 167.802 59.5234 167.712 59.7812C167.626 60.0352 167.583 60.3047 167.583 60.5898ZM181.924 57.6602V58.4922H178.497V57.6602H181.924ZM179.657 56.1191H180.741V62.4297C180.741 62.6445 180.774 62.8066 180.84 62.916C180.907 63.0254 180.993 63.0977 181.098 63.1328C181.204 63.168 181.317 63.1855 181.438 63.1855C181.528 63.1855 181.622 63.1777 181.719 63.1621C181.821 63.1426 181.897 63.127 181.948 63.1152L181.954 64C181.868 64.0273 181.754 64.0527 181.614 64.0762C181.477 64.1035 181.311 64.1172 181.116 64.1172C180.85 64.1172 180.606 64.0645 180.383 63.959C180.161 63.8535 179.983 63.6777 179.85 63.4316C179.721 63.1816 179.657 62.8457 179.657 62.4238V56.1191ZM190.253 57.6602V64H189.164V57.6602H190.253ZM189.082 55.9785C189.082 55.8027 189.134 55.6543 189.24 55.5332C189.349 55.4121 189.509 55.3516 189.72 55.3516C189.927 55.3516 190.086 55.4121 190.195 55.5332C190.308 55.6543 190.365 55.8027 190.365 55.9785C190.365 56.1465 190.308 56.291 190.195 56.4121C190.086 56.5293 189.927 56.5879 189.72 56.5879C189.509 56.5879 189.349 56.5293 189.24 56.4121C189.134 56.291 189.082 56.1465 189.082 55.9785ZM201.612 62.916V59.6523C201.612 59.4023 201.561 59.1855 201.46 59.002C201.362 58.8145 201.214 58.6699 201.014 58.5684C200.815 58.4668 200.569 58.416 200.276 58.416C200.003 58.416 199.762 58.4629 199.555 58.5566C199.352 58.6504 199.192 58.7734 199.075 58.9258C198.962 59.0781 198.905 59.2422 198.905 59.418H197.821C197.821 59.1914 197.88 58.9668 197.997 58.7441C198.114 58.5215 198.282 58.3203 198.501 58.1406C198.723 57.957 198.989 57.8125 199.298 57.707C199.61 57.5977 199.958 57.543 200.341 57.543C200.801 57.543 201.208 57.6211 201.559 57.7773C201.915 57.9336 202.192 58.1699 202.391 58.4863C202.594 58.7988 202.696 59.1914 202.696 59.6641V62.6172C202.696 62.8281 202.714 63.0527 202.749 63.291C202.788 63.5293 202.844 63.7344 202.919 63.9062V64H201.788C201.733 63.875 201.69 63.709 201.659 63.502C201.628 63.291 201.612 63.0957 201.612 62.916ZM201.8 60.1562L201.811 60.918H200.716C200.407 60.918 200.132 60.9434 199.889 60.9941C199.647 61.041 199.444 61.1133 199.28 61.2109C199.116 61.3086 198.991 61.4316 198.905 61.5801C198.819 61.7246 198.776 61.8945 198.776 62.0898C198.776 62.2891 198.821 62.4707 198.911 62.6348C199.001 62.7988 199.135 62.9297 199.315 63.0273C199.499 63.1211 199.723 63.168 199.989 63.168C200.321 63.168 200.614 63.0977 200.868 62.957C201.122 62.8164 201.323 62.6445 201.471 62.4414C201.624 62.2383 201.706 62.041 201.717 61.8496L202.18 62.3711C202.153 62.5352 202.079 62.7168 201.958 62.916C201.837 63.1152 201.675 63.3066 201.471 63.4902C201.272 63.6699 201.034 63.8203 200.757 63.9414C200.483 64.0586 200.175 64.1172 199.831 64.1172C199.401 64.1172 199.024 64.0332 198.7 63.8652C198.38 63.6973 198.13 63.4727 197.95 63.1914C197.774 62.9062 197.686 62.5879 197.686 62.2363C197.686 61.8965 197.753 61.5977 197.885 61.3398C198.018 61.0781 198.21 60.8613 198.46 60.6895C198.71 60.5137 199.01 60.3809 199.362 60.291C199.714 60.2012 200.106 60.1562 200.54 60.1562H201.8ZM211.459 55V64H210.369V55H211.459ZM222.77 62.3184C222.77 62.1621 222.735 62.0176 222.665 61.8848C222.599 61.748 222.46 61.625 222.249 61.5156C222.042 61.4023 221.729 61.3047 221.311 61.2227C220.96 61.1484 220.642 61.0605 220.356 60.959C220.075 60.8574 219.835 60.7344 219.636 60.5898C219.44 60.4453 219.29 60.2754 219.185 60.0801C219.079 59.8848 219.026 59.6562 219.026 59.3945C219.026 59.1445 219.081 58.9082 219.19 58.6855C219.304 58.4629 219.462 58.2656 219.665 58.0938C219.872 57.9219 220.12 57.7871 220.409 57.6895C220.698 57.5918 221.02 57.543 221.376 57.543C221.884 57.543 222.317 57.6328 222.677 57.8125C223.036 57.9922 223.311 58.2324 223.503 58.5332C223.694 58.8301 223.79 59.1602 223.79 59.5234H222.706C222.706 59.3477 222.653 59.1777 222.548 59.0137C222.446 58.8457 222.296 58.707 222.097 58.5977C221.901 58.4883 221.661 58.4336 221.376 58.4336C221.075 58.4336 220.831 58.4805 220.643 58.5742C220.46 58.6641 220.325 58.7793 220.239 58.9199C220.157 59.0605 220.116 59.209 220.116 59.3652C220.116 59.4824 220.136 59.5879 220.175 59.6816C220.218 59.7715 220.292 59.8555 220.397 59.9336C220.503 60.0078 220.651 60.0781 220.843 60.1445C221.034 60.2109 221.278 60.2773 221.575 60.3438C222.095 60.4609 222.522 60.6016 222.858 60.7656C223.194 60.9297 223.444 61.1309 223.608 61.3691C223.772 61.6074 223.854 61.8965 223.854 62.2363C223.854 62.5137 223.796 62.7676 223.679 62.998C223.565 63.2285 223.399 63.4277 223.181 63.5957C222.966 63.7598 222.708 63.8887 222.407 63.9824C222.11 64.0723 221.776 64.1172 221.405 64.1172C220.847 64.1172 220.374 64.0176 219.987 63.8184C219.601 63.6191 219.308 63.3613 219.108 63.0449C218.909 62.7285 218.81 62.3945 218.81 62.043H219.899C219.915 62.3398 220.001 62.5762 220.157 62.752C220.313 62.9238 220.505 63.0469 220.731 63.1211C220.958 63.1914 221.183 63.2266 221.405 63.2266C221.702 63.2266 221.95 63.1875 222.149 63.1094C222.352 63.0312 222.507 62.9238 222.612 62.7871C222.718 62.6504 222.77 62.4941 222.77 62.3184ZM244.011 62.7695V55H245.101V64H244.105L244.011 62.7695ZM239.745 60.9004V60.7773C239.745 60.293 239.804 59.8535 239.921 59.459C240.042 59.0605 240.212 58.7188 240.431 58.4336C240.654 58.1484 240.917 57.9297 241.222 57.7773C241.53 57.6211 241.874 57.543 242.253 57.543C242.652 57.543 242.999 57.6133 243.296 57.7539C243.597 57.8906 243.851 58.0918 244.058 58.3574C244.269 58.6191 244.435 58.9355 244.556 59.3066C244.677 59.6777 244.761 60.0977 244.808 60.5664V61.1055C244.765 61.5703 244.681 61.9883 244.556 62.3594C244.435 62.7305 244.269 63.0469 244.058 63.3086C243.851 63.5703 243.597 63.7715 243.296 63.9121C242.995 64.0488 242.644 64.1172 242.241 64.1172C241.87 64.1172 241.53 64.0371 241.222 63.877C240.917 63.7168 240.654 63.4922 240.431 63.2031C240.212 62.9141 240.042 62.5742 239.921 62.1836C239.804 61.7891 239.745 61.3613 239.745 60.9004ZM240.835 60.7773V60.9004C240.835 61.2168 240.866 61.5137 240.929 61.791C240.995 62.0684 241.097 62.3125 241.234 62.5234C241.37 62.7344 241.544 62.9004 241.755 63.0215C241.966 63.1387 242.218 63.1973 242.511 63.1973C242.87 63.1973 243.165 63.1211 243.396 62.9688C243.63 62.8164 243.818 62.6152 243.958 62.3652C244.099 62.1152 244.208 61.8438 244.286 61.5508V60.1387C244.239 59.9238 244.171 59.7168 244.081 59.5176C243.995 59.3145 243.882 59.1348 243.741 58.9785C243.605 58.8184 243.435 58.6914 243.232 58.5977C243.032 58.5039 242.796 58.457 242.523 58.457C242.226 58.457 241.97 58.5195 241.755 58.6445C241.544 58.7656 241.37 58.9336 241.234 59.1484C241.097 59.3594 240.995 59.6055 240.929 59.8867C240.866 60.1641 240.835 60.4609 240.835 60.7773ZM255.299 64.1172C254.858 64.1172 254.457 64.043 254.098 63.8945C253.742 63.7422 253.436 63.5293 253.178 63.2559C252.924 62.9824 252.729 62.6582 252.592 62.2832C252.455 61.9082 252.387 61.498 252.387 61.0527V60.8066C252.387 60.291 252.463 59.832 252.616 59.4297C252.768 59.0234 252.975 58.6797 253.237 58.3984C253.498 58.1172 253.795 57.9043 254.127 57.7598C254.459 57.6152 254.803 57.543 255.158 57.543C255.612 57.543 256.002 57.6211 256.33 57.7773C256.662 57.9336 256.934 58.1523 257.145 58.4336C257.356 58.7109 257.512 59.0391 257.614 59.418C257.715 59.793 257.766 60.2031 257.766 60.6484V61.1348H253.032V60.25H256.682V60.168C256.666 59.8867 256.608 59.6133 256.506 59.3477C256.408 59.082 256.252 58.8633 256.037 58.6914C255.823 58.5195 255.53 58.4336 255.158 58.4336C254.912 58.4336 254.686 58.4863 254.479 58.5918C254.272 58.6934 254.094 58.8457 253.946 59.0488C253.797 59.252 253.682 59.5 253.6 59.793C253.518 60.0859 253.477 60.4238 253.477 60.8066V61.0527C253.477 61.3535 253.518 61.6367 253.6 61.9023C253.686 62.1641 253.809 62.3945 253.969 62.5938C254.133 62.793 254.33 62.9492 254.561 63.0625C254.795 63.1758 255.061 63.2324 255.358 63.2324C255.741 63.2324 256.065 63.1543 256.33 62.998C256.596 62.8418 256.828 62.6328 257.028 62.3711L257.684 62.8926C257.547 63.0996 257.373 63.2969 257.162 63.4844C256.951 63.6719 256.692 63.8242 256.383 63.9414C256.078 64.0586 255.717 64.1172 255.299 64.1172ZM266.089 55V64H264.999V55H266.089ZM274.887 57.6602V64H273.797V57.6602H274.887ZM273.715 55.9785C273.715 55.8027 273.768 55.6543 273.874 55.5332C273.983 55.4121 274.143 55.3516 274.354 55.3516C274.561 55.3516 274.719 55.4121 274.829 55.5332C274.942 55.6543 274.999 55.8027 274.999 55.9785C274.999 56.1465 274.942 56.291 274.829 56.4121C274.719 56.5293 274.561 56.5879 274.354 56.5879C274.143 56.5879 273.983 56.5293 273.874 56.4121C273.768 56.291 273.715 56.1465 273.715 55.9785ZM284.435 63.0215L286.17 57.6602H287.277L284.998 64H284.271L284.435 63.0215ZM282.988 57.6602L284.775 63.0508L284.898 64H284.172L281.875 57.6602H282.988ZM296.749 64.1172C296.307 64.1172 295.907 64.043 295.548 63.8945C295.192 63.7422 294.886 63.5293 294.628 63.2559C294.374 62.9824 294.178 62.6582 294.042 62.2832C293.905 61.9082 293.837 61.498 293.837 61.0527V60.8066C293.837 60.291 293.913 59.832 294.065 59.4297C294.218 59.0234 294.425 58.6797 294.686 58.3984C294.948 58.1172 295.245 57.9043 295.577 57.7598C295.909 57.6152 296.253 57.543 296.608 57.543C297.061 57.543 297.452 57.6211 297.78 57.7773C298.112 57.9336 298.384 58.1523 298.595 58.4336C298.805 58.7109 298.962 59.0391 299.063 59.418C299.165 59.793 299.216 60.2031 299.216 60.6484V61.1348H294.481V60.25H298.132V60.168C298.116 59.8867 298.057 59.6133 297.956 59.3477C297.858 59.082 297.702 58.8633 297.487 58.6914C297.272 58.5195 296.979 58.4336 296.608 58.4336C296.362 58.4336 296.136 58.4863 295.928 58.5918C295.721 58.6934 295.544 58.8457 295.395 59.0488C295.247 59.252 295.132 59.5 295.05 59.793C294.968 60.0859 294.927 60.4238 294.927 60.8066V61.0527C294.927 61.3535 294.968 61.6367 295.05 61.9023C295.136 62.1641 295.259 62.3945 295.419 62.5938C295.583 62.793 295.78 62.9492 296.011 63.0625C296.245 63.1758 296.511 63.2324 296.807 63.2324C297.19 63.2324 297.514 63.1543 297.78 62.998C298.046 62.8418 298.278 62.6328 298.477 62.3711L299.134 62.8926C298.997 63.0996 298.823 63.2969 298.612 63.4844C298.401 63.6719 298.141 63.8242 297.833 63.9414C297.528 64.0586 297.167 64.1172 296.749 64.1172ZM307.445 58.6562V64H306.361V57.6602H307.416L307.445 58.6562ZM309.426 57.625L309.42 58.6328C309.33 58.6133 309.244 58.6016 309.162 58.5977C309.084 58.5898 308.994 58.5859 308.892 58.5859C308.642 58.5859 308.422 58.625 308.23 58.7031C308.039 58.7812 307.877 58.8906 307.744 59.0312C307.611 59.1719 307.506 59.3398 307.428 59.5352C307.353 59.7266 307.305 59.9375 307.281 60.168L306.976 60.3438C306.976 59.9609 307.014 59.6016 307.088 59.2656C307.166 58.9297 307.285 58.6328 307.445 58.375C307.605 58.1133 307.809 57.9102 308.055 57.7656C308.305 57.6172 308.601 57.543 308.945 57.543C309.023 57.543 309.113 57.5527 309.215 57.5723C309.316 57.5879 309.387 57.6055 309.426 57.625ZM318.821 64.1172C318.38 64.1172 317.98 64.043 317.62 63.8945C317.265 63.7422 316.958 63.5293 316.7 63.2559C316.446 62.9824 316.251 62.6582 316.114 62.2832C315.978 61.9082 315.909 61.498 315.909 61.0527V60.8066C315.909 60.291 315.985 59.832 316.138 59.4297C316.29 59.0234 316.497 58.6797 316.759 58.3984C317.021 58.1172 317.317 57.9043 317.649 57.7598C317.981 57.6152 318.325 57.543 318.681 57.543C319.134 57.543 319.524 57.6211 319.853 57.7773C320.185 57.9336 320.456 58.1523 320.667 58.4336C320.878 58.7109 321.034 59.0391 321.136 59.418C321.237 59.793 321.288 60.2031 321.288 60.6484V61.1348H316.554V60.25H320.204V60.168C320.188 59.8867 320.13 59.6133 320.028 59.3477C319.931 59.082 319.774 58.8633 319.56 58.6914C319.345 58.5195 319.052 58.4336 318.681 58.4336C318.435 58.4336 318.208 58.4863 318.001 58.5918C317.794 58.6934 317.616 58.8457 317.468 59.0488C317.319 59.252 317.204 59.5 317.122 59.793C317.04 60.0859 316.999 60.4238 316.999 60.8066V61.0527C316.999 61.3535 317.04 61.6367 317.122 61.9023C317.208 62.1641 317.331 62.3945 317.491 62.5938C317.655 62.793 317.853 62.9492 318.083 63.0625C318.317 63.1758 318.583 63.2324 318.88 63.2324C319.263 63.2324 319.587 63.1543 319.853 62.998C320.118 62.8418 320.351 62.6328 320.55 62.3711L321.206 62.8926C321.069 63.0996 320.896 63.2969 320.685 63.4844C320.474 63.6719 320.214 63.8242 319.905 63.9414C319.601 64.0586 319.239 64.1172 318.821 64.1172ZM332.43 62.7695V55H333.52V64H332.524L332.43 62.7695ZM328.164 60.9004V60.7773C328.164 60.293 328.223 59.8535 328.34 59.459C328.461 59.0605 328.631 58.7188 328.85 58.4336C329.072 58.1484 329.336 57.9297 329.641 57.7773C329.949 57.6211 330.293 57.543 330.672 57.543C331.07 57.543 331.418 57.6133 331.715 57.7539C332.016 57.8906 332.27 58.0918 332.477 58.3574C332.688 58.6191 332.854 58.9355 332.975 59.3066C333.096 59.6777 333.18 60.0977 333.227 60.5664V61.1055C333.184 61.5703 333.1 61.9883 332.975 62.3594C332.854 62.7305 332.688 63.0469 332.477 63.3086C332.27 63.5703 332.016 63.7715 331.715 63.9121C331.414 64.0488 331.063 64.1172 330.66 64.1172C330.289 64.1172 329.949 64.0371 329.641 63.877C329.336 63.7168 329.072 63.4922 328.85 63.2031C328.631 62.9141 328.461 62.5742 328.34 62.1836C328.223 61.7891 328.164 61.3613 328.164 60.9004ZM329.254 60.7773V60.9004C329.254 61.2168 329.285 61.5137 329.348 61.791C329.414 62.0684 329.516 62.3125 329.652 62.5234C329.789 62.7344 329.963 62.9004 330.174 63.0215C330.385 63.1387 330.637 63.1973 330.93 63.1973C331.289 63.1973 331.584 63.1211 331.815 62.9688C332.049 62.8164 332.236 62.6152 332.377 62.3652C332.518 62.1152 332.627 61.8438 332.705 61.5508V60.1387C332.658 59.9238 332.59 59.7168 332.5 59.5176C332.414 59.3145 332.301 59.1348 332.16 58.9785C332.024 58.8184 331.854 58.6914 331.651 58.5977C331.451 58.5039 331.215 58.457 330.942 58.457C330.645 58.457 330.389 58.5195 330.174 58.6445C329.963 58.7656 329.789 58.9336 329.652 59.1484C329.516 59.3594 329.414 59.6055 329.348 59.8867C329.285 60.1641 329.254 60.4609 329.254 60.7773Z" fill="currentColor"></path><path d="M13.2811 35.5953C12.6918 35.5953 12.1336 35.3881 11.7219 35.0293C11.3231 34.6627 11.1099 34.1795 11.1099 33.6875C11.1099 33.1945 11.324 32.7103 11.7245 32.3433C11.725 32.3429 11.7255 32.3424 11.7259 32.342L16.5041 28.0436L16.9173 27.6719L16.5041 27.3002L11.7429 23.017C11.4155 22.6468 11.2557 22.1898 11.2805 21.7326C11.3057 21.2676 11.5212 20.8173 11.9014 20.4729C12.2828 20.1273 12.8011 19.9159 13.3577 19.8912C13.9059 19.8668 14.4389 20.0258 14.8562 20.329L19.5847 24.6424L19.9217 24.9498L20.2586 24.6424L24.9872 20.329C25.4044 20.0258 25.9375 19.8668 26.4857 19.8912C27.0422 19.9159 27.5606 20.1273 27.942 20.4729C28.3222 20.8173 28.5377 21.2676 28.5629 21.7326C28.5877 22.1898 28.4278 22.6468 28.1004 23.017L23.3392 27.3002L22.926 27.6719L23.3392 28.0436L28.1174 32.342C28.1179 32.3424 28.1184 32.3429 28.1188 32.3433C28.5193 32.7103 28.7335 33.1945 28.7335 33.6875C28.7335 34.1795 28.5203 34.6627 28.1214 35.0293C27.7098 35.3881 27.1516 35.5953 26.5623 35.5953C25.9728 35.5953 25.4144 35.3879 25.0027 35.029L20.2586 30.7013L19.9217 30.3939L19.5847 30.7013L14.8406 35.029C14.4289 35.388 13.8705 35.5953 13.2811 35.5953ZM68.4955 56.1752L68.0823 56.5469L68.4955 56.9186L73.2737 61.217C73.2742 61.2175 73.2747 61.2179 73.2752 61.2184C73.6756 61.5854 73.8898 62.0695 73.8898 62.5625C73.8898 63.0545 73.6765 63.5376 73.2777 63.9043C72.8661 64.2631 72.3078 64.4703 71.7186 64.4703C71.129 64.4703 70.5706 64.2629 70.1589 63.9039L65.4149 59.5763L65.0779 59.2689L64.741 59.5763L59.9968 63.904C59.5852 64.263 59.0268 64.4703 58.4373 64.4703C57.8481 64.4703 57.2899 64.2631 56.8782 63.9044C56.4794 63.5377 56.2661 63.0545 56.2661 62.5625C56.2661 62.0695 56.4802 61.5854 56.8807 61.2184C56.8812 61.2179 56.8817 61.2175 56.8822 61.217L61.6604 56.9186L62.0736 56.5469L61.6604 56.1752L56.8992 51.892C56.5718 51.5218 56.4119 51.0648 56.4367 50.6076C56.4619 50.1426 56.6774 49.6923 57.0576 49.3479C57.4391 49.0023 57.9574 48.7909 58.514 48.7662C59.0621 48.7418 59.5952 48.9008 60.0124 49.204L64.741 53.5174L65.0779 53.8248L65.4149 53.5174L70.1434 49.204C70.5607 48.9009 71.0937 48.7418 71.6419 48.7662C72.1985 48.7909 72.7168 49.0023 73.0983 49.3479C73.4784 49.6923 73.694 50.1426 73.7192 50.6076C73.7439 51.0648 73.5841 51.5218 73.2567 51.892L68.4955 56.1752ZM51.2365 14.8151L52.0288 15.503C57.9595 20.9071 60.1145 27.2711 58.1251 33.782C56.1237 40.3326 49.9418 46.0043 43.0514 47.5701L42.4763 47.625C41.9879 47.6222 41.5189 47.4726 41.1429 47.2062C40.7627 46.9369 40.5032 46.567 40.3934 46.1624C40.2703 45.6833 40.3575 45.1767 40.6459 44.7472C40.9361 44.3149 41.4114 43.9907 41.9796 43.8603C47.3325 42.6479 52.3538 38.0076 53.9675 32.8132L53.9676 32.8132L53.9693 32.8075C54.5033 31.0127 54.7819 28.7387 54.1451 26.2112C53.5078 23.6822 51.9636 20.9383 48.9151 18.1907L48.1558 17.473L47.3123 16.6757V17.8363V24.0625C47.3123 24.5512 47.0984 25.0312 46.6986 25.3934C46.2972 25.7571 45.743 25.9688 45.1561 25.9688C44.5691 25.9688 44.0149 25.7571 43.6135 25.3934C43.2137 25.0312 42.9998 24.5512 42.9998 24.0625V12.0313C42.9998 11.5425 43.2137 11.0625 43.6135 10.7003C44.0149 10.3367 44.5691 10.125 45.1561 10.125H58.4373C59.0243 10.125 59.5784 10.3367 59.9799 10.7003C60.3797 11.0625 60.5936 11.5425 60.5936 12.0313C60.5936 12.52 60.3797 13 59.9799 13.3622C59.5784 13.7258 59.0243 13.9375 58.4373 13.9375H51.5643H50.2256L51.2365 14.8151ZM34.0311 56.5469C34.0311 58.5779 33.3665 60.5681 32.1142 62.2659C30.8614 63.9644 29.0753 65.2951 26.9765 66.0826C24.8776 66.8702 22.5656 67.0769 20.3347 66.6749C18.1038 66.2729 16.0606 65.2816 14.4615 63.833C12.8628 62.3848 11.7806 60.5459 11.3428 58.5521C10.9052 56.5589 11.1292 54.4923 11.9894 52.6111C12.85 50.729 14.3111 49.1123 16.196 47.9714C18.0813 46.8302 20.3023 46.2188 22.5779 46.2188C25.6306 46.2188 28.5494 47.3177 30.6944 49.2608C32.8377 51.2024 34.0311 53.8245 34.0311 56.5469Z" fill="currentColor" stroke="currentColor"></path></g><defs><clipPath id="clip0_277_7"><rect width="358" height="77" fill="white"></rect></clipPath></defs></svg>